<?xml version="1.0" encoding="utf-8"?>
<!-- Generator: Adobe Illustrator 24.0.3, SVG Export Plug-In . SVG Version: 6.00 Build 0)  -->
<svg version="1.1" id="Layer_1" xmlns="http://www.w3.org/2000/svg" xmlns:xlink="http://www.w3.org/1999/xlink" x="0px" y="0px"
	 viewBox="0 0 376 545.1" style="enable-background:new 0 0 376 545.1;" xml:space="preserve">
<style type="text/css">
	.st0{fill:none;stroke:#FFFFFF;stroke-width:1.5;stroke-linecap:round;stroke-linejoin:round;stroke-miterlimit:10;}
	.st1{fill:none;stroke:#FFFFFF;stroke-width:1.5;stroke-linecap:round;stroke-linejoin:round;stroke-miterlimit:10.0001;}
	.st2{fill:none;stroke:#FFFFFF;stroke-width:1.5;stroke-miterlimit:10;}
	.st3{fill:none;stroke:#FFFFFF;stroke-miterlimit:10;}
	.st4{fill:none;stroke:#FFFFFF;stroke-width:1.5;stroke-linejoin:bevel;stroke-miterlimit:10;}
	.st5{fill:none;stroke:#FFFFFF;stroke-linejoin:bevel;stroke-miterlimit:10;}
	.st6{fill:none;stroke:#FFFFFF;stroke-linecap:round;stroke-linejoin:round;stroke-miterlimit:10.0001;}
</style>
<image style="display:none;overflow:visible;enable-background:new    ;" width="1222" height="1002" xlink:href="../../../../../../../../Desktop/Projekt 1/Screenshot 2020-05-04 at 19.37.02.png"  transform="matrix(0.5 0 0 0.5 -102.6024 46.0809)">
</image>
<path class="st0" d="M0.4,329.6c19.5-6.3,44.5-11.3,75.2-15.5"/>
<path class="st0" d="M375.9,423.2c-31,27.8-112.5,42.2-211.9,37.4C99.2,457.4,40.2,444,0.2,426.1"/>
<path class="st0" d="M324.3,340.7c21.7,7.5,40.4,17.1,52.2,28.6"/>
<path class="st0" d="M271.9,190.6l0.4-31.6c0,0-12.1-11.4-42.5-18.7c-29.7-7.1-50-7.1-50-7.1l-1.1,70.6c0,0,18.7,1.3,34.5,4.1
	c14.8,2.7,29.4,7.8,29.4,7.8"/>
<path class="st0" d="M146.7,227.4c0,0,2.7-10.6,10.2-20.5c5.8-7.6,15-12.9,15-12.9l0.5-34.4c0,0-16.3,11-31.3,29.4
	c-14.9,18.3-22.1,34.7-22.1,34.7l-0.5,15.5"/>
<polyline class="st0" points="239.6,263.6 220.7,270.1 200.1,277.1 104.2,246.7 166.8,218.4 228.1,237.4 "/>
<path class="st0" d="M220.7,270.1l0.5-17.7c0,0,4.9-13.5,18.7-31.8c12.2-16.2,32-30,32-30"/>
<path class="st1" d="M264.4,391.6c-2.7,0-5.3-0.3-8-1c-27.5-7.2-39.6-51.5-27.2-99s44.8-80.2,72.2-73c0.6,0.1,1.1,0.3,1.6,0.5"/>
<path class="st0" d="M289,143.5l-8.6,4.2c-3.3,1.6-5.9,5.6-5.9,9.2l-0.1,2.2l-0.5,31.9l1.7,1.7l-0.6,29.9l5-2.5l1.3-63.1
	c0.1-2,1.3-3.8,3.1-4.6l7.6-3.4c1.4-0.6,2.1-2.3,1.4-3.8l0,0C292.7,143.4,290.7,142.7,289,143.5z"/>
<path class="st2" d="M106.9,247.8c0,0-8.9,3.5-12.1,6.4c-3.2,3-9.9,12.1-11.8,20c-1.6,6.5-5.1,18.7-6.3,22.6
	c-0.2,0.9-0.4,1.7-0.4,2.6l-2.4,44c0,0-1,27.6-1,32s2.5,7.1,6.2,8.6s12.1,3.5,12.1,3.5"/>
<path class="st2" d="M119.9,252c0,0-13.6,6.2-17,8.1s-8.6,7.6-11.1,14.8c-1.9,5.6-5.6,16.8-7.3,22.1c-0.6,1.9-1,3.9-1,5.9
	c-0.4,13.6-2.3,69.1-2.5,72c-0.2,3.2,1,3.6,2.5,4.3c1.5,0.7,7.3,2,7.3,2"/>
<path class="st2" d="M171.4,394.6c-0.6-0.5-1.3-0.8-2.1-1.1c-8.2-2.5-58.4-17.4-60.7-18.1c-2.5-0.7-6.2-0.7-8.4,0.5
	c-2.2,1.2-7.1,4.1-8.9,5.2c-1.8,1.1-4.3,5.9,3.3,8.1c7.6,2.2,36,11,41.8,12.7c5.8,1.7,24.5,0.6,29.2-1c3.1-1.1,4.4-1.8,6.3-3.2
	C173.5,396.4,172.6,395.4,171.4,394.6z"/>
<path class="st3" d="M97.7,252.4c4.3,0.5,6.5,3.7,6.1,7.1"/>
<path class="st3" d="M82.7,274.9c2.3,1.8,5.2,2.5,8.2,2.3"/>
<path class="st3" d="M76.8,296.8c2.7,1.4,3.8,1.5,7.5,1.6"/>
<path class="st3" d="M76,300.6c3.3,1.5,5.5,1.4,7.3,1.3"/>
<path class="st3" d="M73.7,340.7c2.7,1.2,6.4,1.4,8.4,1"/>
<path class="st3" d="M73.6,344.3c4.1,1.5,5.4,1.3,8.2,0.8"/>
<path class="st3" d="M72.9,375.4c2.8,0.3,5.8,0,8.2-0.6"/>
<path class="st3" d="M79,384.1c0.2-3,1.8-4.7,3.3-5.4"/>
<path class="st2" d="M197,276.2c0,0-2.8,1.7-5.9,3.9s-5.2,7.2-6.7,10.5c-1.5,3.3-3.5,8.9-3.5,13.5c0,4.6-2.1,97-2.2,100.7
	c-0.1,1.6-1.7,2.1-3.9,1.5c-2.2-0.7-13.6-4.5-13.6-4.5"/>
<path class="st2" d="M147.2,403c0,0,23,7.6,26.7,8.7s11.8,3.1,11.9-6c0.1-6.4,1.1-48.9,1.7-75.9c0.3-11.9,0.5-20.9,0.6-22.3
	c0.2-5.4,1.1-10.4,5.2-15.2c3.2-3.7,9.4-7.8,12.3-9.1c0.8-0.4,30.2-11.2,30.2-11.2"/>
<path class="st3" d="M175.4,406.4c-1.3,1.2-1.6,4.4-1,5.5"/>
<path class="st3" d="M178.5,405.3c1.7,1.2,5.6,1,7.1-0.2"/>
<path class="st3" d="M179.3,374.6c1.8,1,4.7,1.3,6.9,0.6"/>
<path class="st3" d="M179.4,371c2.4,1.2,5.1,1.3,7.2,0.6"/>
<path class="st3" d="M180.6,327.3c2.7,1.1,4.9,1,7.1,0.3"/>
<path class="st3" d="M180.2,330.9c2.1,0.8,5.2,1.2,7.2,0.4"/>
<path class="st3" d="M181.1,303.6c1.8,0.9,4.2,1.5,7.2,1"/>
<path class="st3" d="M192.5,279.2c3.3,0.1,6.6,4.3,5.8,8.8"/>
<path class="st2" d="M128.5,206.7l-6.9-0.1c0,0,9.3-17.2,19.8-27.4s20.9-18.7,20.9-18.7l8,0.2"/>
<path class="st4" d="M229.4,236l5.7,1.8c0,0,10-16.5,18.1-24.5c8.1-7.9,22.2-19.5,22.2-19.5l-5.5-1.8"/>
<path class="st5" d="M282.3,146.7c2.1,0.3,3.3,3.1,3.2,5"/>
<path class="st5" d="M274.3,160.5c2.4,0.7,4.7,0.6,6.9,0.3"/>
<path class="st5" d="M274.2,165.5c2.3,0.5,4.8,0.6,6.8,0.2"/>
<path class="st5" d="M274.2,171.9c2.4,0.7,4.6,0.7,6.6,0.3"/>
<path class="st5" d="M273.9,184.6c2.3,0.8,5,0.6,6.5-0.2"/>
<path class="st5" d="M275,191.9c1.8,0.7,4.4,0.1,5.4-0.5"/>
<path class="st5" d="M275.3,199.3c2.6,0,3.1,0,4.9-0.6"/>
<path class="st4" d="M179.8,133.2c0,0-0.5-4.9,1.9-8c2.4-3,3.7-4.2,5.6-5.4c1.9-1.2,7.9-4.1,10-5.1c2-1,3.9,0.5,4.5,1.8
	s0.3,3.7-1.8,4.4c-2.6,0.9-9,3.9-9,3.9s-5,2.7-5,8.6"/>
<path class="st5" d="M187.3,119.9c3.4-0.1,4.4,2.8,4.7,4.4"/>
<path class="st1" d="M97.7,295.1c-0.6-10.3-0.1-20.6,1.8-31.8"/>
<path class="st1" d="M151.6,350.7c-6.8,2.1-14.3,3.7-22.6,1.8c-13.3-3-22.7-16.1-27.7-34.5"/>
<path class="st1" d="M82.2,352.6c2.7-1.9,5.8-2.6,8.8-1.8c6.3,1.7,9.6,9.9,7.3,18.3c-1.5,5.6-5.2,9.9-9.4,11.6"/>
<path class="st1" d="M236.3,291c13.4-47,45.6-78.7,71.9-70.7c26.3,7.9,36.8,52.5,23.4,99.5c-7.7,26.9-21.5,48.8-36.8,61.1
	c-11.5,9.2-23.8,13.1-35.1,9.7C233.4,382.5,222.9,338,236.3,291z"/>
<g>
	<path class="st1" d="M203.4,417.1c-2.2,0.1-4.2,0.2-5.9-0.2c-6.6-1.8-10.1-10.4-7.7-19.2c2.4-8.8,9.8-14.4,16.4-12.6
		c0.5,0.1,1,0.3,1.5,0.6"/>
	<path class="st2" d="M187.5,329.7l10.6-4.4c0,0,7.5-3.6,12.2,3.1c4.7,6.7,7.4,8.9,7.4,14c0,0.6-0.1,1.5-0.2,2.2
		c-0.1,0.5,0.2,0.9,0.7,1c1.2,0.2,3.2,0.8,3.1,2.6c-0.1,2.6-2.3,7.8-7.4,6.9c-5.1-0.9-6.8-1-9.6-1.5c-2.8-0.5-4.8-4.3-3.2-7.5
		c1.2-2.4,3.2-3.3,4.1-3.6c0.3-0.1,0.6-0.3,0.8-0.7c0.3-0.6,0.5-1.8-0.2-2.9c-1.1-1.7-2.5-5.2-5.8-3.7c-3.3,1.5-12.7,5.9-12.7,5.9"
		/>
	<path class="st3" d="M199.1,324.8c2.6,1.7,5.3,5.9,2.9,10.3"/>
	<path class="st3" d="M214.4,334.5c-3.9,2.7-5.4,3.7-8.7,4.5"/>
	<path class="st3" d="M205.2,343.2c1.5,2.3,6,5.8,12.3,2.1"/>
	<path class="st1" d="M207.6,354.1c0,0,2.3,3.2,0.9,4.6c-1.5,1.4-4.9,3.8-5.7,7c-0.7,3.2,2,5.5,2,5.5s-4.1,0.4-4.8,3
		c-0.7,2.6-4.2,13.2-4.2,13.2"/>
	<path class="st1" d="M215.1,355.4c-1.5,1.7,0,5.1,1.7,6.4c1.7,1.4,3.2,3.9,2.5,6.2s-3.9,4.6-3.9,4.6s4.6,2.8,3.3,6.4
		c-1.1,3.1-6.9,14.9-8.5,18c-0.3,0.5-6.9,0-6.9,0"/>
	<path class="st1" d="M202.8,384.6c1-3,3-7,3-7l4.7,0.7l-4.1,12.2"/>
	<path class="st6" d="M204.7,371.3c3.5,1.2,5.9,1.6,10.6,1.2"/>
	<path class="st6" d="M204.6,362c3.3,1.6,8.4,2,12.8,0.6"/>
	<path class="st1" d="M214.3,388.8c3,3.8,3.2,10.5,1.9,15.5c-2.4,8.6-9.4,14.2-15.7,12.5s-9.5-10.1-7.2-18.7
		c2-7.3,7.4-12.4,12.8-12.8"/>
</g>
<g>
	<path class="st1" d="M81.9,350.6c2-0.7,4.1-0.9,6.1-0.3c0.5,0.1,1,0.3,1.5,0.6"/>
	<path class="st2" d="M84.3,298.8c2.3-0.9,7.2-2.6,8.6-3.2c2.8-1.1,5.8-1,7.4,1c5,6.4-0.8,5.9-0.8,11.1c0,0.6-0.1,1.5-0.2,2.2
		c-0.1,0.5,0.2,0.9,0.7,1c1.2,0.2,3.2,0.8,3.1,2.6c-0.1,2.6-2.3,7.8-7.4,6.9c-5.1-0.9-6.8-1-9.6-1.5c-2.8-0.5-3.9-3.7-2.3-6.9
		c1.3-2.5,1.3-3,3.5-4.4c0.2-0.2,6.3-2.6,8.3-3.2"/>
	<path class="st3" d="M87.1,308.5c1.5,2.3,6,5.8,12.3,2.1"/>
	<path class="st1" d="M89.4,319.4c0,0,2.3,3.2,0.9,4.6s-4.9,3.8-5.7,7c-0.7,3.2,2,5.5,2,5.5s-3,0.3-4.3,1.9"/>
	<path class="st1" d="M97,320.6c-1.5,1.7,0,5.1,1.7,6.4c1.7,1.4,3.2,3.9,2.5,6.2c-0.7,2.2-3.9,4.6-3.9,4.6s4.6,2.8,3.3,6.4
		c-1.1,3.1-6.9,14.9-8.5,18c-0.3,0.5-6.9,0-6.9,0"/>
	<path class="st1" d="M84.6,349.8c1-3,3-7,3-7l4.7,0.7l-4.1,12.2"/>
	<path class="st6" d="M86.6,336.5c3.5,1.2,5.9,1.6,10.6,1.2"/>
	<path class="st6" d="M86.5,327.2c3.3,1.6,8.4,2,12.8,0.6"/>
	<path class="st1" d="M81.8,352.9c1.9-1.5,4.1-2.4,6.3-2.5"/>
	<path class="st1" d="M96.2,354c3,3.8,3.2,10.5,1.9,15.5c-1.5,5.3-4.7,9.5-8.5,11.5"/>
</g>
<path class="st3" d="M99.6,306.8c-1.8,0.4-5.1,0.6-7.7-0.7"/>
<path class="st3" d="M94.6,295.2c2.1,1.5,3,6.3,0.6,9.5"/>
<line class="st2" x1="83.5" y1="307.9" x2="95.5" y2="304.3"/>
<polyline class="st2" points="245.8,385.7 238.8,389.2 292,403.8 333.4,385.9 300.3,376.3 "/>
<polyline class="st2" points="112.4,341.3 101.1,347.2 149.3,361.5 180,346.7 "/>
<line class="st2" x1="170.2" y1="339.1" x2="180.4" y2="342"/>
<path class="st2" d="M172.1,219.8c5.7-2.2,6.6-16,6.6-16l5.3,0.6c0,0-1.1,13.9-5.6,17.6"/>
<path class="st1" d="M102.2,249.6c4.7-16.5,12.7-31.5,21.2-43.1"/>
<path class="st1" d="M202.6,206.3c3,7.3,4.7,15.5,5.6,24.9"/>
<path class="st1" d="M202.4,206.1"/>
<path class="st1" d="M172.1,181.1c2.5,0.1,4.5,0.3,6.9,1"/>
<path class="st1" d="M180.6,328.1c-14.8,18.8-32.8,28.1-48.7,23.3c-24.8-7.5-34.9-48.2-26-92.5"/>
<path class="st1" d="M180.2,328.7"/>
<path class="st1" d="M202.4,285c-3.7,12-8.6,22.9-14.3,32.3"/>
<path class="st0" d="M110.2,243.8c0,0,2.6-9.8,8.5-17.9"/>
<path class="st0" d="M153.2,263.3c0,0-3.2,3.5-2.6,6.7c0.6,3.2,1,3.4,5.4,4.7c4.7,1.4,31.6,9.4,31.6,9.4"/>
<line class="st0" x1="203.5" y1="284.3" x2="229.2" y2="291.6"/>
<line class="st0" x1="212.9" y1="280.4" x2="230.7" y2="285.4"/>
<ellipse transform="matrix(0.2957 -0.9553 0.9553 0.2957 -91.6837 487.2036)" class="st0" cx="284.6" cy="305.8" rx="6.8" ry="4"/>
<line class="st6" x1="296.4" y1="399.4" x2="268.6" y2="391.8"/>
<line class="st6" x1="320.1" y1="389.3" x2="294.1" y2="381.7"/>
<path class="st6" d="M293.8,403.1c0.4-3.6,5.5-5.9,9.4-4.2l-27.8-7.8"/>
<path class="st6" d="M241.5,387.8"/>
<line class="st6" x1="241.5" y1="387.8" x2="294" y2="402.4"/>
<path class="st6" d="M296.4,379.4l30.5,9.1c-3.9-1.2-9.4,1.1-10.4,4.7l-28-8"/>
<line class="st6" x1="154.2" y1="356.2" x2="142.8" y2="352.9"/>
<line class="st6" x1="173.1" y1="347.2" x2="163.6" y2="344.5"/>
<line class="st6" x1="103.9" y1="345.9" x2="151.9" y2="359.3"/>
<line class="st6" x1="114.7" y1="344.2" x2="109.6" y2="342.8"/>
<path class="st6" d="M148.3,351.9l12.7,3.8c-3.8-1.7-9,0.6-9.4,4.2"/>
<path class="st6" d="M158.3,347.8l11.7,3.4c1-3.6,6-5.7,10-4.5"/>
<line class="st6" x1="166" y1="342.6" x2="179.6" y2="346.7"/>
<line class="st6" x1="38.9" y1="440.6" x2="132.5" y2="400.8"/>
<line class="st6" x1="156.9" y1="389.7" x2="179.2" y2="380.5"/>
<line class="st6" x1="186.3" y1="378.5" x2="203.5" y2="370.5"/>
<line class="st6" x1="218.6" y1="363.5" x2="228" y2="359.6"/>
<path class="st0" d="M190.7,313.4c0,0,10.2,0.5,17.6,1.3c9.1,0.9,16.5,2.2,16.5,2.2"/>
</svg>
