<?xml version="1.0" encoding="utf-8"?>
<!-- Generator: Adobe Illustrator 24.0.3, SVG Export Plug-In . SVG Version: 6.00 Build 0)  -->
<svg version="1.1" id="Layer_1" xmlns="http://www.w3.org/2000/svg" xmlns:xlink="http://www.w3.org/1999/xlink" x="0px" y="0px"
	 viewBox="0 0 502.3 545.1" style="enable-background:new 0 0 502.3 545.1;" xml:space="preserve">
<style type="text/css">
	.st0{fill:none;stroke:#FFFFFF;stroke-width:1.5;stroke-linecap:round;stroke-linejoin:round;stroke-miterlimit:10;}
	.st1{fill:none;stroke:#FFFFFF;stroke-width:1.5;stroke-linecap:round;stroke-linejoin:round;stroke-miterlimit:10.0001;}
	.st2{fill:none;stroke:#FFFFFF;stroke-width:1.5;stroke-miterlimit:10;}
	.st3{fill:none;stroke:#FFFFFF;stroke-miterlimit:10;}
	.st4{fill:none;stroke:#FFFFFF;stroke-width:1.5;stroke-linejoin:bevel;stroke-miterlimit:10;}
	.st5{fill:none;stroke:#FFFFFF;stroke-linejoin:bevel;stroke-miterlimit:10;}
	.st6{fill:none;stroke:#FFFFFF;stroke-linecap:round;stroke-linejoin:round;stroke-miterlimit:10.0001;}
	.st7{fill:none;stroke:#FFFFFF;stroke-width:1.5;stroke-linecap:round;stroke-linejoin:round;stroke-miterlimit:10.0002;}
</style>
<image style="display:none;overflow:visible;enable-background:new    ;" width="1222" height="1002" xlink:href="../../../../../../../../Desktop/Projekt 1/Screenshot 2020-05-04 at 19.37.02.png"  transform="matrix(0.5 0 0 0.5 23.6561 46.0809)">
</image>
<path class="st0" d="M347.7,193.7l0.4-31.6c0,0-12.1-11.4-42.5-18.7c-29.7-7.1-50-7.1-50-7.1l-1.1,70.6c0,0,18.7,1.3,34.5,4.1
	c14.8,2.7,29.4,7.8,29.4,7.8"/>
<path class="st0" d="M222.5,230.5c0,0,2.7-10.6,10.2-20.5c5.8-7.6,15-12.9,15-12.9l0.5-34.4c0,0-16.3,11-31.3,29.4
	c-14.9,18.3-22.1,34.7-22.1,34.7l-0.5,15.5"/>
<polyline class="st0" points="315.4,266.7 296.5,273.2 275.9,280.2 180,249.8 242.6,221.5 303.9,240.5 "/>
<path class="st0" d="M296.5,273.2l0.5-17.7c0,0,4.9-13.5,18.7-31.8c12.2-16.2,32-30,32-30"/>
<path class="st1" d="M340.2,394.7c-2.7,0-5.3-0.3-8-1c-27.5-7.2-39.6-51.5-27.2-99c12.4-47.5,44.8-80.2,72.2-73
	c0.6,0.1,1.1,0.3,1.6,0.5"/>
<path class="st0" d="M364.8,146.6l-8.6,4.2c-3.3,1.6-5.9,5.6-5.9,9.2l-0.1,2.2l-0.5,31.9l1.7,1.7l-0.6,29.9l5-2.5l1.3-63.1
	c0.1-2,1.3-3.8,3.1-4.6l7.6-3.4c1.4-0.6,2.1-2.3,1.4-3.8l0,0C368.5,146.5,366.5,145.8,364.8,146.6z"/>
<path class="st2" d="M182.7,250.9c0,0-8.9,3.5-12.1,6.4c-3.2,3-9.9,12.1-11.8,20c-1.6,6.5-5.1,18.7-6.3,22.6
	c-0.2,0.9-0.4,1.7-0.4,2.6l-2.4,44c0,0-1,27.6-1,32s2.5,7.1,6.2,8.6s12.1,3.5,12.1,3.5"/>
<path class="st2" d="M195.7,255.1c0,0-13.6,6.2-17,8.1c-3.4,1.9-8.6,7.6-11.1,14.8c-1.9,5.6-5.6,16.8-7.3,22.1c-0.6,1.9-1,3.9-1,5.9
	c-0.4,13.6-2.3,69.1-2.5,72c-0.2,3.2,1,3.6,2.5,4.3c1.5,0.7,7.3,2,7.3,2"/>
<path class="st2" d="M247.2,397.7c-0.6-0.5-1.3-0.8-2.1-1.1c-8.2-2.5-58.4-17.4-60.7-18.1c-2.5-0.7-6.2-0.7-8.4,0.5
	c-2.2,1.2-7.1,4.1-8.9,5.2s-4.3,5.9,3.3,8.1c7.6,2.2,36,11,41.8,12.7s24.5,0.6,29.2-1c3.1-1.1,4.4-1.8,6.3-3.2
	C249.3,399.5,248.4,398.5,247.2,397.7z"/>
<path class="st3" d="M173.5,255.5c4.3,0.5,6.5,3.7,6.1,7.1"/>
<path class="st3" d="M158.5,278c2.3,1.8,5.2,2.5,8.2,2.3"/>
<path class="st3" d="M152.6,299.9c2.7,1.4,3.8,1.5,7.5,1.6"/>
<path class="st3" d="M151.8,303.7c3.3,1.5,5.5,1.4,7.3,1.3"/>
<path class="st3" d="M149.5,343.8c2.7,1.2,6.4,1.4,8.4,1"/>
<path class="st3" d="M149.4,347.4c4.1,1.5,5.4,1.3,8.2,0.8"/>
<path class="st3" d="M148.7,378.5c2.8,0.3,5.8,0,8.2-0.6"/>
<path class="st3" d="M154.8,387.2c0.2-3,1.8-4.7,3.3-5.4"/>
<path class="st2" d="M272.8,279.3c0,0-2.8,1.7-5.9,3.9c-3.1,2.2-5.2,7.2-6.7,10.5s-3.5,8.9-3.5,13.5s-2.1,97-2.2,100.7
	c-0.1,1.6-1.7,2.1-3.9,1.5c-2.2-0.7-13.6-4.5-13.6-4.5"/>
<path class="st2" d="M223,406.1c0,0,23,7.6,26.7,8.7s11.8,3.1,11.9-6c0.1-6.4,1.1-48.9,1.7-75.9c0.3-11.9,0.5-20.9,0.6-22.3
	c0.2-5.4,1.1-10.4,5.2-15.2c3.2-3.7,9.4-7.8,12.3-9.1c0.8-0.4,30.2-11.2,30.2-11.2"/>
<path class="st3" d="M251.2,409.5c-1.3,1.2-1.6,4.4-1,5.5"/>
<path class="st3" d="M254.3,408.4c1.7,1.2,5.6,1,7.1-0.2"/>
<path class="st3" d="M255.1,377.7c1.8,1,4.7,1.3,6.9,0.6"/>
<path class="st3" d="M255.2,374.1c2.4,1.2,5.1,1.3,7.2,0.6"/>
<path class="st3" d="M256.4,330.4c2.7,1.1,4.9,1,7.1,0.3"/>
<path class="st3" d="M256,334c2.1,0.8,5.2,1.2,7.2,0.4"/>
<path class="st3" d="M256.9,306.7c1.8,0.9,4.2,1.5,7.2,1"/>
<path class="st3" d="M268.3,282.3c3.3,0.1,6.6,4.3,5.8,8.8"/>
<path class="st2" d="M204.3,209.8l-6.9-0.1c0,0,9.3-17.2,19.8-27.4s20.9-18.7,20.9-18.7l8,0.2"/>
<path class="st4" d="M305.2,239.1l5.7,1.8c0,0,10-16.5,18.1-24.5c8.1-7.9,22.2-19.5,22.2-19.5l-5.5-1.8"/>
<path class="st5" d="M358.1,149.8c2.1,0.3,3.3,3.1,3.2,5"/>
<path class="st5" d="M350.1,163.6c2.4,0.7,4.7,0.6,6.9,0.3"/>
<path class="st5" d="M350,168.6c2.3,0.5,4.8,0.6,6.8,0.2"/>
<path class="st5" d="M350,175c2.4,0.7,4.6,0.7,6.6,0.3"/>
<path class="st5" d="M349.7,187.7c2.3,0.8,5,0.6,6.5-0.2"/>
<path class="st5" d="M350.8,195c1.8,0.7,4.4,0.1,5.4-0.5"/>
<path class="st5" d="M351.1,202.4c2.6,0,3.1,0,4.9-0.6"/>
<path class="st4" d="M255.6,136.3c0,0-0.5-4.9,1.9-8c2.4-3,3.7-4.2,5.6-5.4c1.9-1.2,7.9-4.1,10-5.1c2-1,3.9,0.5,4.5,1.8
	s0.3,3.7-1.8,4.4c-2.6,0.9-9,3.9-9,3.9s-5,2.7-5,8.6"/>
<path class="st5" d="M263.1,123c3.4-0.1,4.4,2.8,4.7,4.4"/>
<path class="st1" d="M173.5,298.2c-0.6-10.3-0.1-20.6,1.8-31.8"/>
<path class="st1" d="M227.4,353.8c-6.8,2.1-14.3,3.7-22.6,1.8c-13.3-3-22.7-16.1-27.7-34.5"/>
<path class="st1" d="M158,355.7c2.7-1.9,5.8-2.6,8.8-1.8c6.3,1.7,9.6,9.9,7.3,18.3c-1.5,5.6-5.2,9.9-9.4,11.6"/>
<path class="st1" d="M312.1,294.1c13.4-47,45.6-78.7,71.9-70.7c26.3,7.9,36.8,52.5,23.4,99.5c-7.7,26.9-21.5,48.8-36.8,61.1
	c-11.5,9.2-23.8,13.1-35.1,9.7C309.2,385.6,298.7,341.1,312.1,294.1z"/>
<g>
	<path class="st1" d="M279.2,420.2c-2.2,0.1-4.2,0.2-5.9-0.2c-6.6-1.8-10.1-10.4-7.7-19.2c2.4-8.8,9.8-14.4,16.4-12.6
		c0.5,0.1,1,0.3,1.5,0.6"/>
	<path class="st2" d="M263.3,332.8l10.6-4.4c0,0,7.5-3.6,12.2,3.1c4.7,6.7,7.4,8.9,7.4,14c0,0.6-0.1,1.5-0.2,2.2
		c-0.1,0.5,0.2,0.9,0.7,1c1.2,0.2,3.2,0.8,3.1,2.6c-0.1,2.6-2.3,7.8-7.4,6.9c-5.1-0.9-6.8-1-9.6-1.5c-2.8-0.5-4.8-4.3-3.2-7.5
		c1.2-2.4,3.2-3.3,4.1-3.6c0.3-0.1,0.6-0.3,0.8-0.7c0.3-0.6,0.5-1.8-0.2-2.9c-1.1-1.7-2.5-5.2-5.8-3.7c-3.3,1.5-12.7,5.9-12.7,5.9"
		/>
	<path class="st3" d="M274.9,327.9c2.6,1.7,5.3,5.9,2.9,10.3"/>
	<path class="st3" d="M290.2,337.6c-3.9,2.7-5.4,3.7-8.7,4.5"/>
	<path class="st3" d="M281,346.3c1.5,2.3,6,5.8,12.3,2.1"/>
	<path class="st1" d="M283.4,357.2c0,0,2.3,3.2,0.9,4.6c-1.5,1.4-4.9,3.8-5.7,7c-0.7,3.2,2,5.5,2,5.5s-4.1,0.4-4.8,3
		c-0.7,2.6-4.2,13.2-4.2,13.2"/>
	<path class="st1" d="M290.9,358.5c-1.5,1.7,0,5.1,1.7,6.4c1.7,1.4,3.2,3.9,2.5,6.2c-0.7,2.3-3.9,4.6-3.9,4.6s4.6,2.8,3.3,6.4
		c-1.1,3.1-6.9,14.9-8.5,18c-0.3,0.5-6.9,0-6.9,0"/>
	<path class="st1" d="M278.6,387.7c1-3,3-7,3-7l4.7,0.7l-4.1,12.2"/>
	<path class="st6" d="M280.5,374.4c3.5,1.2,5.9,1.6,10.6,1.2"/>
	<path class="st6" d="M280.4,365.1c3.3,1.6,8.4,2,12.8,0.6"/>
	<path class="st1" d="M290.1,391.9c3,3.8,3.2,10.5,1.9,15.5c-2.4,8.6-9.4,14.2-15.7,12.5c-6.3-1.7-9.5-10.1-7.2-18.7
		c2-7.3,7.4-12.4,12.8-12.8"/>
</g>
<g>
	<path class="st1" d="M157.7,353.7c2-0.7,4.1-0.9,6.1-0.3c0.5,0.1,1,0.3,1.5,0.6"/>
	<path class="st2" d="M160.1,301.9c2.3-0.9,7.2-2.6,8.6-3.2c2.8-1.1,5.8-1,7.4,1c5,6.4-0.8,5.9-0.8,11.1c0,0.6-0.1,1.5-0.2,2.2
		c-0.1,0.5,0.2,0.9,0.7,1c1.2,0.2,3.2,0.8,3.1,2.6c-0.1,2.6-2.3,7.8-7.4,6.9c-5.1-0.9-6.8-1-9.6-1.5s-3.9-3.7-2.3-6.9
		c1.3-2.5,1.3-3,3.5-4.4c0.2-0.2,6.3-2.6,8.3-3.2"/>
	<path class="st3" d="M162.9,311.6c1.5,2.3,6,5.8,12.3,2.1"/>
	<path class="st1" d="M165.2,322.5c0,0,2.3,3.2,0.9,4.6c-1.4,1.4-4.9,3.8-5.7,7c-0.7,3.2,2,5.5,2,5.5s-3,0.3-4.3,1.9"/>
	<path class="st1" d="M172.8,323.7c-1.5,1.7,0,5.1,1.7,6.4c1.7,1.4,3.2,3.9,2.5,6.2c-0.7,2.2-3.9,4.6-3.9,4.6s4.6,2.8,3.3,6.4
		c-1.1,3.1-6.9,14.9-8.5,18c-0.3,0.5-6.9,0-6.9,0"/>
	<path class="st1" d="M160.4,352.9c1-3,3-7,3-7l4.7,0.7l-4.1,12.2"/>
	<path class="st6" d="M162.4,339.6c3.5,1.2,5.9,1.6,10.6,1.2"/>
	<path class="st6" d="M162.3,330.3c3.3,1.6,8.4,2,12.8,0.6"/>
	<path class="st1" d="M157.6,356c1.9-1.5,4.1-2.4,6.3-2.5"/>
	<path class="st1" d="M172,357.1c3,3.8,3.2,10.5,1.9,15.5c-1.5,5.3-4.7,9.5-8.5,11.5"/>
</g>
<path class="st3" d="M175.4,309.9c-1.8,0.4-5.1,0.6-7.7-0.7"/>
<path class="st3" d="M170.4,298.3c2.1,1.5,3,6.3,0.6,9.5"/>
<line class="st2" x1="159.3" y1="311" x2="171.3" y2="307.4"/>
<polyline class="st2" points="321.6,388.8 314.6,392.3 367.8,406.9 409.2,389 376.1,379.4 "/>
<polyline class="st2" points="188.2,344.4 176.9,350.3 225.1,364.6 255.8,349.8 "/>
<line class="st2" x1="246" y1="342.2" x2="256.2" y2="345.1"/>
<path class="st2" d="M247.9,222.9c5.7-2.2,6.6-16,6.6-16l5.3,0.6c0,0-1.1,13.9-5.6,17.6"/>
<path class="st1" d="M178,252.7c4.7-16.5,12.7-31.5,21.2-43.1"/>
<path class="st1" d="M278.4,209.4c3,7.3,4.7,15.5,5.6,24.9"/>
<path class="st1" d="M278.2,209.2"/>
<path class="st1" d="M247.9,184.2c2.5,0.1,4.5,0.3,6.9,1"/>
<path class="st1" d="M256.4,331.2c-14.8,18.8-32.8,28.1-48.7,23.3c-24.8-7.5-34.9-48.2-26-92.5"/>
<path class="st1" d="M256,331.8"/>
<path class="st1" d="M278.2,288.1c-3.7,12-8.6,22.9-14.3,32.3"/>
<path class="st0" d="M186,246.9c0,0,2.6-9.8,8.5-17.9"/>
<path class="st0" d="M229,266.4c0,0-3.2,3.5-2.6,6.7c0.6,3.2,1,3.4,5.4,4.7c4.7,1.4,31.6,9.4,31.6,9.4"/>
<line class="st0" x1="279.3" y1="287.4" x2="305" y2="294.7"/>
<line class="st0" x1="288.7" y1="283.5" x2="306.5" y2="288.5"/>
<ellipse transform="matrix(0.2957 -0.9553 0.9553 0.2957 -41.2201 561.8772)" class="st7" cx="360.4" cy="308.9" rx="6.8" ry="4"/>
<line class="st6" x1="372.2" y1="402.5" x2="344.4" y2="394.9"/>
<line class="st6" x1="395.9" y1="392.4" x2="369.9" y2="384.8"/>
<path class="st6" d="M369.6,406.2c0.4-3.6,5.5-5.9,9.4-4.2l-27.8-7.8"/>
<path class="st6" d="M317.3,390.9"/>
<line class="st6" x1="317.3" y1="390.9" x2="369.8" y2="405.5"/>
<path class="st6" d="M372.2,382.5l30.5,9.1c-3.9-1.2-9.4,1.1-10.4,4.7l-28-8"/>
<line class="st6" x1="230" y1="359.3" x2="218.6" y2="356"/>
<line class="st6" x1="248.9" y1="350.3" x2="239.4" y2="347.6"/>
<line class="st6" x1="179.7" y1="349" x2="227.7" y2="362.4"/>
<line class="st6" x1="190.5" y1="347.3" x2="185.4" y2="345.9"/>
<path class="st6" d="M224.1,355l12.7,3.8c-3.8-1.7-9,0.6-9.4,4.2"/>
<path class="st6" d="M234.1,350.9l11.7,3.4c1-3.6,6-5.7,10-4.5"/>
<line class="st6" x1="241.8" y1="345.7" x2="255.4" y2="349.8"/>
<line class="st6" x1="114.7" y1="443.7" x2="208.3" y2="403.9"/>
<line class="st6" x1="232.7" y1="392.8" x2="255" y2="383.6"/>
<line class="st6" x1="262.1" y1="381.6" x2="279.3" y2="373.6"/>
<line class="st6" x1="294.4" y1="366.6" x2="303.8" y2="362.7"/>
<path class="st2" d="M400.1,343.2c42.6,16.3,68.6,37.4,67.3,59.1c-2.4,41.5-103.7,69.3-226.2,62.1S21.4,417.7,23.9,376.3
	c1.7-29.5,53.5-52.1,127.3-60.1"/>
<path class="st2" d="M268.1,315.5c11.1,1,22,2.2,32.6,3.6"/>
<path class="st2" d="M266.7,315.3c0.5,0,0.9,0.1,1.4,0.1"/>
</svg>
